<svg width="50" height="71" viewBox="0 0 50 71" fill="none" xmlns="http://www.w3.org/2000/svg">
<path d="M0.335007 52H27.571C32.221 52 36.6806 50.1528 39.9687 46.8647C43.2568 43.5767 45.104 39.1171 45.104 34.467V34.333C45.1037 29.6832 43.2564 25.2238 39.9684 21.936C36.6803 18.6481 32.2209 16.801 27.571 16.801H0.335007C0.246332 16.801 0.161276 16.8362 0.0984802 16.8988C0.0356842 16.9614 0.0002647 17.0464 0 17.135V51.665C0 51.7539 0.0353046 51.8391 0.0981293 51.9019C0.160954 51.9647 0.246159 52 0.335007 52Z" fill="#E7FFF7"/>
<path d="M48.9591 0H26.9091C22.2413 0 17.7646 1.85428 14.464 5.15492C11.1634 8.45556 9.30908 12.9322 9.30908 17.6C9.30908 22.2678 11.1634 26.7444 14.464 30.0451C17.7646 33.3457 22.2413 35.2 26.9091 35.2H48.9591C49.0477 35.2 49.1328 35.1648 49.1956 35.1022C49.2584 35.0396 49.2938 34.9547 49.2941 34.866V0.335999C49.2941 0.247151 49.2588 0.161938 49.196 0.0991135C49.1331 0.0362888 49.0479 0.000999451 48.9591 0.000999451M47.6881 33.26C47.6881 33.3488 47.6528 33.434 47.59 33.4969C47.5271 33.5597 47.4419 33.595 47.3531 33.595H26.9101C24.7991 33.6117 22.7058 33.2103 20.7507 32.4141C18.7956 31.6178 17.0175 30.4424 15.519 28.9556C14.0204 27.4688 12.8309 25.7 12.0192 23.7513C11.2075 21.8026 10.7896 19.7125 10.7896 17.6015C10.7896 15.4905 11.2075 13.4004 12.0192 11.4517C12.8309 9.50295 14.0204 7.7342 15.519 6.24741C17.0175 4.76061 18.7956 3.58519 20.7507 2.78893C22.7058 1.99266 24.7991 1.5913 26.9101 1.60799H47.3531C47.4417 1.60799 47.5268 1.64316 47.5896 1.70576C47.6524 1.76837 47.6878 1.85333 47.6881 1.942V33.26Z" fill="#44EDC7"/>
<path d="M12.218 69.9999C11.6674 70.0029 11.1174 69.9594 10.574 69.8699C10.1056 69.7965 9.65272 69.6454 9.23405 69.4229C8.85625 69.2188 8.54258 68.9138 8.32805 68.5419C8.09452 68.1057 7.98132 67.6153 8.00005 67.1209V67.0529C8.00022 67.0215 8.00425 66.9903 8.01205 66.9599H10.605C10.5973 66.9903 10.5932 67.0215 10.593 67.0529V67.1339C10.5792 67.3391 10.6411 67.5423 10.767 67.7049C10.8967 67.8452 11.0689 67.939 11.257 67.9719C11.4916 68.0196 11.7306 68.0424 11.97 68.0399C12.0694 68.0399 12.1747 68.0379 12.286 68.0339C12.3945 68.0303 12.5026 68.0179 12.609 67.9969C12.7075 67.9779 12.8033 67.9466 12.894 67.9039C12.9739 67.8663 13.0428 67.8088 13.094 67.7369C13.1461 67.6579 13.172 67.5644 13.168 67.4699C13.1691 67.3947 13.1501 67.3206 13.113 67.2553C13.0759 67.1899 13.0221 67.1355 12.957 67.0979C12.7795 66.9913 12.587 66.9118 12.386 66.8619C12.146 66.7952 11.8774 66.7332 11.58 66.6759C11.2827 66.6185 10.9724 66.5519 10.649 66.4759C10.3314 66.4003 10.0201 66.3 9.71805 66.1759C9.42781 66.0561 9.15635 65.8951 8.91205 65.6979C8.67008 65.4964 8.47691 65.2427 8.34705 64.9559C8.19823 64.6228 8.12612 64.2606 8.13605 63.8959C8.12226 63.4535 8.22945 63.0158 8.44605 62.6299C8.65485 62.2809 8.94865 61.9906 9.30005 61.7859C9.68005 61.5635 10.0938 61.4048 10.525 61.3159C11 61.2146 11.4844 61.1643 11.97 61.1659C12.456 61.163 12.9407 61.215 13.415 61.3209C13.8387 61.4129 14.2442 61.5744 14.615 61.7989C14.9502 62.0017 15.2312 62.2827 15.434 62.6179C15.64 62.9765 15.747 63.3834 15.744 63.7969V63.9459H13.174V63.8959C13.1742 63.7478 13.1356 63.6023 13.062 63.4739C12.9789 63.3333 12.8556 63.2208 12.708 63.1509C12.5077 63.0602 12.2888 63.0177 12.069 63.0269C11.8576 63.0221 11.6466 63.047 11.442 63.1009C11.3009 63.1337 11.1706 63.2026 11.064 63.3009C10.9874 63.3738 10.9429 63.4741 10.94 63.5799C10.9396 63.6567 10.9587 63.7324 10.9957 63.7997C11.0326 63.8671 11.0861 63.9239 11.151 63.9649C11.3259 64.0794 11.519 64.1632 11.722 64.2129C11.962 64.2795 12.2307 64.3415 12.528 64.3989C12.8254 64.4562 13.1357 64.5202 13.459 64.5909C13.7762 64.6595 14.0875 64.7528 14.39 64.8699C14.6792 64.9811 14.9507 65.1337 15.196 65.3229C15.4348 65.5077 15.6298 65.743 15.767 66.0119C15.9157 66.3238 15.9881 66.6665 15.978 67.0119C16.0059 67.6207 15.8338 68.222 15.488 68.7239C15.1481 69.1718 14.6812 69.507 14.148 69.6859C13.527 69.8959 12.8745 69.9974 12.219 69.9859" fill="#E7FFF7"/>
<path d="M21.5862 70.001C21.2734 70.0038 20.9613 69.9726 20.6552 69.908C20.3931 69.8543 20.1443 69.7489 19.9232 69.598C19.7162 69.4533 19.5513 69.2563 19.4452 69.027C19.3264 68.7556 19.2694 68.4612 19.2782 68.165C19.2585 67.7471 19.3629 67.3327 19.5782 66.974C19.7968 66.6552 20.1057 66.409 20.4652 66.267C20.92 66.0855 21.3986 65.9706 21.8862 65.926C22.5231 65.8601 23.163 65.829 23.8032 65.833V65.51C23.8106 65.3529 23.7648 65.1979 23.6732 65.07C23.584 64.9568 23.4663 64.8691 23.3322 64.816C23.1781 64.7557 23.0137 64.7261 22.8482 64.729C22.7022 64.7299 22.5566 64.7466 22.4142 64.779C22.2796 64.8054 22.1537 64.8653 22.0482 64.953C22.0001 64.9966 21.9622 65.0503 21.9375 65.1104C21.9127 65.1704 21.9017 65.2352 21.9052 65.3V65.35H19.4772C19.4697 65.3216 19.4657 65.2924 19.4652 65.263V65.176C19.4596 64.7861 19.5989 64.408 19.8562 64.115C20.169 63.7773 20.5675 63.5306 21.0092 63.401C21.6185 63.2173 22.2531 63.1316 22.8892 63.147C23.4538 63.1429 24.0166 63.2101 24.5642 63.347C25.0297 63.4538 25.4581 63.6831 25.8052 64.011C25.9665 64.1796 26.0916 64.3794 26.1726 64.5982C26.2536 64.817 26.2889 65.0501 26.2762 65.283V67.841C26.2731 67.9624 26.3081 68.0816 26.3762 68.182C26.4097 68.2297 26.4549 68.2679 26.5074 68.293C26.56 68.318 26.6181 68.3291 26.6762 68.325H27.1232V69.752C26.9682 69.8295 26.8033 69.8857 26.6332 69.919C26.3705 69.9766 26.1021 70.0037 25.8332 70C25.5408 70.0043 25.249 69.9706 24.9652 69.9C24.7475 69.8481 24.5431 69.751 24.3652 69.615C24.221 69.5031 24.1114 69.3527 24.0492 69.181H23.9622C23.7796 69.3449 23.5782 69.4865 23.3622 69.603C23.1177 69.7337 22.8572 69.8319 22.5872 69.895C22.2615 69.9691 21.9282 70.0044 21.5942 70M22.5942 68.462C22.7478 68.4627 22.9006 68.4398 23.0472 68.394C23.186 68.3515 23.3177 68.2888 23.4382 68.208C23.5492 68.1344 23.6424 68.0371 23.7112 67.923C23.7774 67.8125 23.812 67.6859 23.8112 67.557V67.001C23.4132 66.992 23.0155 67.0296 22.6262 67.113C22.3845 67.1599 22.1571 67.2626 21.9622 67.413C21.8971 67.4653 21.8445 67.5313 21.808 67.6063C21.7715 67.6814 21.7521 67.7636 21.7512 67.847C21.7423 67.9864 21.7866 68.1241 21.8752 68.232C21.9596 68.3242 22.0697 68.389 22.1912 68.418C22.3219 68.4515 22.4563 68.4683 22.5912 68.468" fill="#E7FFF7"/>
<path d="M33.189 69.9999C32.7885 70.0062 32.3893 69.954 32.004 69.8449C31.6851 69.758 31.4039 69.5682 31.204 69.3049C30.9978 68.9932 30.8978 68.6231 30.919 68.2499V64.9749H30.001V63.2999H31.018L31.552 61.3149H33.389V63.2999H34.779V64.9749H33.389V67.4689C33.3749 67.6904 33.422 67.9114 33.525 68.1079C33.5916 68.1889 33.6779 68.2513 33.7756 68.2893C33.8733 68.3273 33.9792 68.3396 34.083 68.3249H34.778V69.7769C34.617 69.8254 34.4534 69.8647 34.288 69.8949C34.0952 69.932 33.9006 69.959 33.705 69.9759C33.5103 69.9926 33.3386 70.0009 33.19 70.0009" fill="#E7FFF7"/>
<path d="M38.3989 60.856H40.8679V62.531H38.3989V60.856ZM38.3989 63.3H40.8679V69.856H38.3989V63.3Z" fill="#E7FFF7"/>
</svg>
